<?xml version="1.0" encoding="UTF-8" standalone="no"?>
<svg
   xmlns:osb="http://www.openswatchbook.org/uri/2009/osb"
   xmlns:dc="http://purl.org/dc/elements/1.1/"
   xmlns:cc="http://creativecommons.org/ns#"
   xmlns:rdf="http://www.w3.org/1999/02/22-rdf-syntax-ns#"
   xmlns:svg="http://www.w3.org/2000/svg"
   xmlns="http://www.w3.org/2000/svg"
   xmlns:sodipodi="http://sodipodi.sourceforge.net/DTD/sodipodi-0.dtd"
   xmlns:inkscape="http://www.inkscape.org/namespaces/inkscape"
   width="100"
   height="100"
   viewBox="0 0 26.458333 26.458333"
   version="1.1"
   id="svg8"
   inkscape:version="1.0 (4035a4fb49, 2020-05-01)"
   sodipodi:docname="settings.svg">
  <defs
     id="defs2">
    <inkscape:path-effect
       effect="copy_rotate"
       starting_point="0,0"
       origin="5.7,4.2"
       id="path-effect3068"
       is_visible="true"
       lpeversion="1"
       method="normal"
       num_copies="8"
       starting_angle="0"
       rotation_angle="60"
       gap="-0.01"
       copies_to_360="true"
       mirror_copies="false"
       split_items="false" />
    <inkscape:path-effect
       effect="copy_rotate"
       starting_point="0,0"
       origin="4.9,0"
       id="path-effect3061"
       is_visible="true"
       lpeversion="1"
       method="normal"
       num_copies="8"
       starting_angle="0"
       rotation_angle="0"
       gap="0"
       copies_to_360="true"
       mirror_copies="false"
       split_items="false" />
    <inkscape:path-effect
       effect="copy_rotate"
       starting_point="0,0"
       origin="0,0"
       id="path-effect3049"
       is_visible="true"
       lpeversion="1"
       method="normal"
       num_copies="7"
       starting_angle="0"
       rotation_angle="0"
       gap="5"
       copies_to_360="true"
       mirror_copies="false"
       split_items="false" />
    <linearGradient
       id="linearGradient2899"
       osb:paint="solid">
      <stop
         style="stop-color:#800000;stop-opacity:1;"
         offset="0"
         id="stop2897" />
    </linearGradient>
  </defs>
  <sodipodi:namedview
     id="base"
     pagecolor="#ffffff"
     bordercolor="#666666"
     borderopacity="1.0"
     inkscape:pageopacity="0.0"
     inkscape:pageshadow="2"
     inkscape:zoom="3.959798"
     inkscape:cx="45.832878"
     inkscape:cy="48.188449"
     inkscape:document-units="px"
     inkscape:current-layer="layer2"
     inkscape:document-rotation="0"
     showgrid="false"
     units="px"
     inkscape:window-width="1680"
     inkscape:window-height="987"
     inkscape:window-x="-8"
     inkscape:window-y="-8"
     inkscape:window-maximized="1"
     inkscape:snap-center="false" />
  <metadata
     id="metadata5">
    <rdf:RDF>
      <cc:Work
         rdf:about="">
        <dc:format>image/svg+xml</dc:format>
        <dc:type
           rdf:resource="http://purl.org/dc/dcmitype/StillImage" />
        <dc:title></dc:title>
      </cc:Work>
    </rdf:RDF>
  </metadata>
  <g
     style="display:none"
     inkscape:label="Layer 2"
     id="layer2"
     inkscape:groupmode="layer">
    <rect
       y="-2.4722431"
       x="-9.1539812"
       height="36.014568"
       width="44.567192"
       id="rect855"
       style="fill:#000000;fill-opacity:1;stroke:#ffffff;stroke-width:1.265;stroke-opacity:1" />
  </g>
  <g
     style="display:inline"
     inkscape:label="Layer 1"
     inkscape:groupmode="layer"
     id="layer1">
    <path
       id="path3039"
       style="fill:#ffffff;fill-opacity:1;stroke:#ffffff;stroke-width:0.29903;stroke-opacity:1"
       d="m 1.5034317,17.513738 a 12.611262,12.611262 0 0 0 1.1102767,2.310181 l 3.579068,-1.274448 a 9.2378977,9.2378977 0 0 0 1.0663103,1.14728 l -1.6523798,3.479906 a 12.611262,12.611262 0 0 0 4.7617771,2.308147 l 1.663367,-3.503039 a 9.2378977,9.2378977 0 0 0 1.564699,0.111154 l 1.303445,3.660496 a 12.611262,12.611262 0 0 0 2.697376,-0.637486 12.611262,12.611262 0 0 0 2.302934,-1.094065 l -1.252309,-3.516892 a 9.2378977,9.2378977 0 0 0 1.351305,-1.116643 l 3.329189,1.580817 a 12.611262,12.611262 0 0 0 2.295463,-4.7678 l -3.109085,-1.476303 a 9.2378977,9.2378977 0 0 0 0.18956,-2.006131 l 3.165864,-1.127313 A 12.611262,12.611262 0 0 0 25.247429,9.0049449 12.611262,12.611262 0 0 0 24.095272,6.6067638 L 21.111524,7.669227 A 9.2378977,9.2378977 0 0 0 19.666969,6.0081515 L 21.001203,3.1982608 A 12.611262,12.611262 0 0 0 16.211634,0.94960755 L 14.891926,3.7289082 A 9.2378977,9.2378977 0 0 0 12.695029,3.6512944 L 11.65862,0.74072295 A 12.611262,12.611262 0 0 0 9.1364454,1.3548872 12.611262,12.611262 0 0 0 6.6829953,2.5416038 L 7.7674035,5.5869736 A 9.2378977,9.2378977 0 0 0 6.3308494,6.9900175 L 3.3493529,5.574299 a 12.611262,12.611262 0 0 0 -2.2605904,4.7839 l 3.1933952,1.516338 a 9.2378977,9.2378977 0 0 0 -0.020655,1.745737 L 0.85739986,14.83242 a 12.611262,12.611262 0 0 0 0.62898714,2.633453 12.611262,12.611262 0 0 0 0.016999,0.04788 z m 5.9970329,-2.743633 a 6.4944219,6.4944219 0 0 1 -0.00216,-0.006 6.4944219,6.4944219 0 0 1 3.9396454,-8.2968535 6.4944219,6.4944219 0 0 1 8.296313,3.9398355 6.4944219,6.4944219 0 0 1 -3.939129,8.296618 6.4944219,6.4944219 0 0 1 -8.2947082,-3.933586 z" />
  </g>
</svg>
