<?xml version="1.0" encoding="UTF-8" standalone="no"?>
<svg
   xmlns:dc="http://purl.org/dc/elements/1.1/"
   xmlns:cc="http://creativecommons.org/ns#"
   xmlns:rdf="http://www.w3.org/1999/02/22-rdf-syntax-ns#"
   xmlns:svg="http://www.w3.org/2000/svg"
   xmlns="http://www.w3.org/2000/svg"
   xmlns:sodipodi="http://sodipodi.sourceforge.net/DTD/sodipodi-0.dtd"
   xmlns:inkscape="http://www.inkscape.org/namespaces/inkscape"
   sodipodi:docname="stranger_photo.svg"
   inkscape:version="1.0 (4035a4fb49, 2020-05-01)"
   id="svg8"
   version="1.1"
   viewBox="0 0 26.458333 26.458334"
   height="100"
   width="100">
  <defs
     id="defs2" />
  <sodipodi:namedview
     inkscape:window-maximized="1"
     inkscape:window-y="-8"
     inkscape:window-x="-8"
     inkscape:window-height="987"
     inkscape:window-width="1680"
     inkscape:guide-bbox="true"
     showguides="true"
     units="px"
     showgrid="false"
     inkscape:document-rotation="0"
     inkscape:current-layer="layer1"
     inkscape:document-units="mm"
     inkscape:cy="62.475653"
     inkscape:cx="44.610746"
     inkscape:zoom="5.7483444"
     inkscape:pageshadow="2"
     inkscape:pageopacity="0.0"
     borderopacity="1.0"
     bordercolor="#666666"
     pagecolor="#ffffff"
     id="base">
    <sodipodi:guide
       id="guide860"
       orientation="1,0"
       position="13.07188,22.177754" />
  </sodipodi:namedview>
  <metadata
     id="metadata5">
    <rdf:RDF>
      <cc:Work
         rdf:about="">
        <dc:format>image/svg+xml</dc:format>
        <dc:type
           rdf:resource="http://purl.org/dc/dcmitype/StillImage" />
        <dc:title></dc:title>
      </cc:Work>
    </rdf:RDF>
  </metadata>
  <g
     id="layer1"
     inkscape:groupmode="layer"
     inkscape:label="Layer 1">
    <path
       transform="scale(0.26458333)"
       d="M 49.320312 2.0878906 A 31.05242 28.964861 0 0 0 18.439453 31.052734 A 31.05242 28.964861 0 0 0 33.707031 55.996094 C 31.01946 56.820202 26.997717 57.408203 20.875 57.408203 C -0.34850195 57.408203 4.5234375 106.46484 4.5234375 106.46484 L 95.953125 106.22656 C 95.953125 106.22656 99.371947 58.017578 78.148438 58.017578 C 71.591326 58.017578 67.401194 57.292702 64.728516 56.292969 A 31.05242 28.964861 0 0 0 80.544922 31.052734 A 31.05242 28.964861 0 0 0 49.492188 2.0878906 A 31.05242 28.964861 0 0 0 49.320312 2.0878906 z "
       style="fill:#000000;stroke:#000000;stroke-width:0.999999px;stroke-linecap:butt;stroke-linejoin:miter;stroke-opacity:1;fill-opacity:1"
       id="path833" />
    <path
       sodipodi:nodetypes="cscc"
       id="path889"
       d="m 8.1008831,8.0088277 c 0,0 4.2559409,-6.7730982 8.0548559,-3.2679704 4.085383,3.7694422 -3.083859,9.2976047 -3.083859,9.2976047 v 4.556747"
       style="fill:none;fill-opacity:1;stroke:#ffffff;stroke-width:1.265;stroke-linecap:butt;stroke-linejoin:miter;stroke-miterlimit:4;stroke-dasharray:none;stroke-opacity:1" />
    <circle
       r="1.2887769"
       cy="21.448929"
       cx="13.071879"
       id="path891"
       style="fill:none;fill-opacity:1;stroke:#ffffff;stroke-width:1.265;stroke-miterlimit:4;stroke-dasharray:none;stroke-opacity:1" />
  </g>
</svg>
